<?xml version="1.0" encoding="utf-8"?>
<!-- Generator: Adobe Illustrator 17.0.0, SVG Export Plug-In . SVG Version: 6.00 Build 0)  -->
<!DOCTYPE svg PUBLIC "-//W3C//DTD SVG 1.1//EN" "http://www.w3.org/Graphics/SVG/1.1/DTD/svg11.dtd">
<svg version="1.1" id="Layer_1" xmlns="http://www.w3.org/2000/svg" xmlns:xlink="http://www.w3.org/1999/xlink" x="0px" y="0px"
     width="656px" height="203px" viewBox="67.5 114.5 656 203" enable-background="new 67.5 114.5 656 203" xml:space="preserve">
<g>
    <g>
        <g>
            <path fill="#009AD7" d="M140.004,118.836L140.004,118.836c-15.509,0-24.542,11.637-24.542,26.42
                c0,19.766,19.909,46.966,24.541,53.702h0.001c4.54-6.736,24.54-34.058,24.54-53.702
                C164.544,130.473,155.512,118.836,140.004,118.836z M140.003,156.383c-6.899,0-12.494-5.592-12.494-12.492
                c0-6.898,5.595-12.492,12.494-12.492c6.9,0,12.492,5.594,12.492,12.492C152.496,150.791,146.904,156.383,140.003,156.383z"/>
            <path fill="#00BCDF" d="M179.591,236.888c-7.898-14.757-20.453-22.088-32.497-26.182c-0.921-0.36-2.019-0.734-3.336-1.121
                c-3.865-1.135-7.736-2.076-12.693-2.51c-11.979-1.047-26.702,0.65-37.79,6.982c-9.174,5.24-20.714,17.082-16.412,29.035
                c4.033,11.209,20.183,9.475,28.66-1.152c5.628-7.057,8.493-15.234,14.43-22.139c4.708-5.473,8.747-8.595,14.048-9.967
                c6.597-1.708,10.409,4.105,11.847,6.977c1.483,2.963,2.529,7.615,2.815,13.093c0.23,4.482,0.247,10.545,0.08,19.064
                c-0.272,13.797,7.964,23.724,22.48,19.666C181.105,265.874,186.987,250.702,179.591,236.888z"/>
            <path fill="#85D3E8" d="M183.793,159.631c-10.46,5.67-15.23,23.005-26.508,35.013c-2.404,2.561-10.744,10.9-19.299,8.691
                c-10.169-2.543-20.487-19.532-35.358-24.988c-7.509-2.768-20.182-3.508-25.459,5.262c-4.94,8.23,2.075,17.182,15.87,16.5
                c9.472-0.467,20.668,0.213,31.005,1.666c7.173,1.008,10.675,2.598,17.654,3.742c2.219,0.465,4.806,0.854,7.632,1.041
                c33.746,2.23,58.993-11.094,63.179-27.547C217.344,160.006,199.051,151.359,183.793,159.631z"/>
        </g>
        <g>
            <path fill="#636466" d="M206.63,237.434h8.033v73.043h-8.033V237.434z"/>
            <path fill="#636466" d="M280.209,303.977c10.539,0,18.312-1.934,28.269-5.5v7.727c-10.04,3.38-18.401,5.501-29.089,5.501
                c-29.104,0-48.736-15.201-48.736-53.998c0-38.801,19.884-54.58,48.826-54.58c11.013,0,18.971,2.137,28.999,6.082v7.727
                c-9.867-3.783-17.488-6.084-28.018-6.084c-25.149,0-41.758,12.328-41.758,46.855
                C238.704,292.231,255.223,303.977,280.209,303.977z"/>
            <path fill="#636466" d="M391.819,229.428c-8.369,0-14.325,0-19.851,0v8.062c3.854,0,10.142,0,19.354,0
                c18.084,0,26.309,8.176,26.309,26.235c-2.448-0.731-8.393-2.729-19.072-2.729c-7.401,0-38.141,0.984-38.141,25.809
                c0,21.539,22.851,24.824,33.203,24.824c10.03,0,32.223-2.795,32.223-24.494v-24.331
                C425.845,241.104,415.495,229.428,391.819,229.428z M417.794,287.133c0,14.465-14.467,17.096-24.172,17.096
                c-9.862,0-25.146-2.795-25.146-17.426c0-15.947,19.064-18.246,29.093-18.246c10.853,0,18.411,2.164,20.225,2.787
                C417.794,272.766,417.794,287.133,417.794,287.133z"/>
            <path fill="#636466" d="M476.452,304.215c7.559,0,15.29-1.793,22.358-4.588v7.892c-7.402,2.795-15.097,4.075-22.984,4.075
                c-16.928,0-37.511-6.706-37.511-41.068c0-34.194,20.388-41.436,37.314-41.436c7.889,0,15.777,1.818,23.181,4.449v7.891
                c-7.067-2.633-14.8-4.447-22.358-4.447c-18.086,0-30.079,8.557-30.079,33.543C446.373,295.682,458.366,304.215,476.452,304.215z"
                />
            <path fill="#636466" d="M216.729,223.189c0-3.358-2.721-6.082-6.083-6.082c-3.363,0-6.081,2.724-6.081,6.082
                c0,3.36,2.718,6.082,6.081,6.082C214.008,229.271,216.729,226.55,216.729,223.189z"/>
            <path fill="#636466" d="M319.945,270.749c0-9.012,0,39.728,0,39.728h8.048v-41.146c0.266-19.124,2.617-32.262,29.433-31.842
                v-8.062C319.307,228.629,319.945,252.498,319.945,270.749z"/>
            <path fill="#636466" d="M641.667,254.256c0-16.076-12.364-22.457-23-24.389c-6.315-1.146-11.401-1.084-16.416,0.119
                c-22.775,5.467-26.016,30.949-26.016,42.186l0,0c0,23.32,11.833,39.455,36.612,39.455c13.248,0,18.581-2.104,25.941-4.875v-7.889
                c-7.717,2.826-13.688,5.361-25.445,5.361c-26.045,0-28.409-22.166-28.729-26.809c2.515,0.836,8.222,2.648,18.9,2.648
                C610.925,280.065,641.667,279.079,641.667,254.256z M584.616,268.061c0.778-18.297,8.416-29.79,23.768-31.034
                c1.699-0.139,3.71-0.088,4.965,0.035c9.34,0.914,20.268,4.822,20.268,17.193c0,15.942-19.077,18.247-29.105,18.247
                c-10.367,0-16.753-1.385-19.895-2.748V268.061L584.616,268.061z"/>
            <path fill="#636466" d="M689.013,229.043c8.058,0,15.894,1.699,22.806,4.17v-29.547h8.054v83.303
                c0,6.082-2.797,24.662-31.894,24.662c-13.478,0-35.348-5.265-35.348-41.759C652.631,236.496,671.92,229.043,689.013,229.043z
                 M687.978,304.229c17.757,0,23.84-8.547,23.84-16.932v-45.866c-6.741-2.797-14.636-4.441-22.691-4.441
                c-17.423,0-28.278,8.387-28.278,32.881C660.848,300.448,676.638,304.229,687.978,304.229z"/>
            <path fill="#636466" d="M520.129,310.477h-8.036V203.666h8.036V310.477z"/>
            <polygon fill="#636466" points="572.979,230.936 561.975,230.936 525.479,269.946 563.391,310.469 574.403,310.469 
                536.227,269.946             "/>
        </g>
    </g>
</g>
</svg>
